<mxfile host="app.diagrams.net" modified="2023-10-17T06:40:16.079Z" agent="Mozilla/5.0 (Windows NT 10.0; Win64; x64) AppleWebKit/537.36 (KHTML, like Gecko) Chrome/117.0.0.0 Safari/537.36" etag="EJP9dCZU7q63BodB_1tn" version="22.0.4" type="github">
  <diagram name="第 1 页" id="m8Y2bPKccs0BhpPyB7dn">
    <mxGraphModel dx="1434" dy="758" grid="1" gridSize="10" guides="1" tooltips="1" connect="1" arrows="1" fold="1" page="1" pageScale="1" pageWidth="4681" pageHeight="3300" math="0" shadow="0">
      <root>
        <mxCell id="0" />
        <mxCell id="1" parent="0" />
        <mxCell id="TbUIRS5alaqaaHzp_Mkm-1" value="Login" style="rounded=1;whiteSpace=wrap;html=1;" vertex="1" parent="1">
          <mxGeometry x="440" y="190" width="400" height="50" as="geometry" />
        </mxCell>
        <mxCell id="TbUIRS5alaqaaHzp_Mkm-2" value="NP-Server" style="rounded=1;whiteSpace=wrap;html=1;" vertex="1" parent="1">
          <mxGeometry x="450" y="310" width="120" height="60" as="geometry" />
        </mxCell>
        <mxCell id="TbUIRS5alaqaaHzp_Mkm-3" value="NP-Server" style="rounded=1;whiteSpace=wrap;html=1;" vertex="1" parent="1">
          <mxGeometry x="580" y="310" width="120" height="60" as="geometry" />
        </mxCell>
        <mxCell id="TbUIRS5alaqaaHzp_Mkm-4" value="NP-Server" style="rounded=1;whiteSpace=wrap;html=1;" vertex="1" parent="1">
          <mxGeometry x="710" y="310" width="120" height="60" as="geometry" />
        </mxCell>
        <mxCell id="TbUIRS5alaqaaHzp_Mkm-6" value="" style="shape=flexArrow;endArrow=classic;startArrow=classic;html=1;rounded=0;entryX=0.5;entryY=1;entryDx=0;entryDy=0;" edge="1" parent="1">
          <mxGeometry width="100" height="100" relative="1" as="geometry">
            <mxPoint x="640" y="304" as="sourcePoint" />
            <mxPoint x="640" y="244" as="targetPoint" />
          </mxGeometry>
        </mxCell>
        <mxCell id="TbUIRS5alaqaaHzp_Mkm-7" value="wdId hash" style="text;html=1;align=center;verticalAlign=middle;resizable=0;points=[];autosize=1;strokeColor=none;fillColor=none;" vertex="1" parent="1">
          <mxGeometry x="660" y="260" width="80" height="30" as="geometry" />
        </mxCell>
        <mxCell id="TbUIRS5alaqaaHzp_Mkm-9" value="" style="rounded=1;whiteSpace=wrap;html=1;" vertex="1" parent="1">
          <mxGeometry x="450" y="440" width="120" height="140" as="geometry" />
        </mxCell>
        <mxCell id="TbUIRS5alaqaaHzp_Mkm-10" value="Np Data" style="rounded=1;whiteSpace=wrap;html=1;" vertex="1" parent="1">
          <mxGeometry x="460" y="450" width="100" height="30" as="geometry" />
        </mxCell>
        <mxCell id="TbUIRS5alaqaaHzp_Mkm-11" value="wdId: 无端Id唯一标识&lt;br&gt;checkTime：上次检测时间&lt;br&gt;user：NpUser" style="whiteSpace=wrap;html=1;align=left;" vertex="1" parent="1">
          <mxGeometry x="435" y="500" width="150" height="60" as="geometry" />
        </mxCell>
      </root>
    </mxGraphModel>
  </diagram>
</mxfile>
